HIERARCHY
ROOT hip
{
	OFFSET 0.000000 103.560692 0.219151
	CHANNELS 6 Xposition Yposition Zposition Zrotation Xrotation Yrotation
	JOINT pelvis
	{
		OFFSET 0.000000 1.955040 1.591925
		CHANNELS 3 Zrotation Xrotation Yrotation
		JOINT lThigh
		{
			OFFSET 8.341582 -7.629402 -0.646910
			CHANNELS 3 Zrotation Xrotation Yrotation
			JOINT lShin
			{
				OFFSET 2.185763 -45.093132 -0.705710
				CHANNELS 3 Zrotation Xrotation Yrotation
				JOINT lFoot
				{
					OFFSET 0.730976 -46.379768 -2.264282
					CHANNELS 3 Zrotation Xrotation Yrotation
					JOINT lToe
					{
						OFFSET 2.797621 -4.200020 10.742415
						CHANNELS 3 Zrotation Xrotation Yrotation
						JOINT lBigToe
						{
							OFFSET -2.433708 -0.269072 1.841711
							CHANNELS 3 Zrotation Xrotation Yrotation
							End Site
							{
								OFFSET -10.527346 -33.657166 -1.340707
							}
						}
					}
				}
			}
		}
		JOINT rThigh
		{
			OFFSET -8.341582 -7.629402 -0.646910
			CHANNELS 3 Zrotation Xrotation Yrotation
			JOINT rShin
			{
				OFFSET -2.185763 -45.093132 -0.705710
				CHANNELS 3 Zrotation Xrotation Yrotation
				JOINT rFoot
				{
					OFFSET -0.730976 -46.379768 -2.264282
					CHANNELS 3 Zrotation Xrotation Yrotation
					JOINT rToe
					{
						OFFSET -2.797621 -4.200019 10.742415
						CHANNELS 3 Zrotation Xrotation Yrotation
						JOINT rBigToe
						{
							OFFSET 2.433708 -0.269072 1.841711
							CHANNELS 3 Zrotation Xrotation Yrotation
							End Site
							{
								OFFSET 0.000000 24.298409 -0.425647
							}
						}
					}
				}
			}
		}
	}
	JOINT abdomen
	{
		OFFSET 0.000000 1.841293 -3.551421
		CHANNELS 3 Zrotation Xrotation Yrotation
		JOINT abdomen2
		{
			OFFSET 0.000000 5.439911 3.419600
			CHANNELS 3 Zrotation Xrotation Yrotation
			JOINT chest
			{
				OFFSET 0.000000 14.715073 -2.918270
				CHANNELS 3 Zrotation Xrotation Yrotation
				JOINT neck
				{
					OFFSET 0.000000 26.294655 -1.248052
					CHANNELS 3 Zrotation Xrotation Yrotation
					JOINT head
					{
						OFFSET 0.000000 8.807068 1.063695
						CHANNELS 3 Zrotation Xrotation Yrotation
						JOINT rEye
						{
							OFFSET -3.030866 6.632080 7.702687
							CHANNELS 3 Zrotation Xrotation Yrotation
							End Site
							{
								OFFSET 2.969555 -11.022598 8.626689
							}
						}
						JOINT lEye
						{
							OFFSET 3.030866 6.632080 7.702687
							CHANNELS 3 Zrotation Xrotation Yrotation
							End Site
							{
								OFFSET 0.000000 -15.881760 10.104412
							}
						}
						JOINT upperJaw
						{
							OFFSET 0.000000 1.922699 2.891887
							CHANNELS 3 Zrotation Xrotation Yrotation
							End Site
							{
								OFFSET 0.000000 -19.386169 10.230839
							}
						}
						JOINT lowerJaw
						{
							OFFSET 0.000000 1.857620 2.686640
							CHANNELS 3 Zrotation Xrotation Yrotation
							JOINT tongueBase
							{
								OFFSET 0.000000 -3.019135 2.746916
								CHANNELS 3 Zrotation Xrotation Yrotation
								JOINT tongue01
								{
									OFFSET 0.000000 0.664124 0.223355
									CHANNELS 3 Zrotation Xrotation Yrotation
									JOINT tongue02
									{
										OFFSET 0.000000 0.339737 0.715627
										CHANNELS 3 Zrotation Xrotation Yrotation
										JOINT tongue03
										{
											OFFSET 0.000000 0.123444 0.730634
											CHANNELS 3 Zrotation Xrotation Yrotation
											JOINT tongue04
											{
												OFFSET 0.000000 0.017212 0.737415
												CHANNELS 3 Zrotation Xrotation Yrotation
												JOINT tongue05
												{
													OFFSET 0.000000 -0.021011 0.632440
													CHANNELS 3 Zrotation Xrotation Yrotation
													JOINT tongueTip
													{
														OFFSET 0.000000 -0.014404 0.601796
														CHANNELS 3 Zrotation Xrotation Yrotation
														End Site
														{
															OFFSET -14.139406 -2.625778 0.472826
														}
													}
												}
											}
										}
									}
								}
							}
						}
					}
				}
				JOINT rCollar
				{
					OFFSET -2.109295 21.452370 3.768136
					CHANNELS 3 Zrotation Xrotation Yrotation
					JOINT rShldr
					{
						OFFSET -11.491621 -2.568573 -4.940255
						CHANNELS 3 Zrotation Xrotation Yrotation
						JOINT rForeArm
						{
							OFFSET -28.789030 -0.213806 2.098380
							CHANNELS 3 Zrotation Xrotation Yrotation
							JOINT rHand
							{
								OFFSET -22.260895 -0.869583 10.391586
								CHANNELS 3 Zrotation Xrotation Yrotation
								JOINT rThumb1
								{
									OFFSET -0.628075 0.137405 2.362409
									CHANNELS 3 Zrotation Xrotation Yrotation
									JOINT rThumb2
									{
										OFFSET 0.085205 -0.600235 3.826079
										CHANNELS 3 Zrotation Xrotation Yrotation
										JOINT rThumb3
										{
											OFFSET -1.255478 -0.879211 2.439162
											CHANNELS 3 Zrotation Xrotation Yrotation
											End Site
											{
												OFFSET -2.963715 0.538574 4.059553
											}
										}
									}
								}
								JOINT rCarpal1
								{
									OFFSET -0.855530 1.026047 1.621985
									CHANNELS 3 Zrotation Xrotation Yrotation
									JOINT rIndex1
									{
										OFFSET -3.951324 0.390884 3.873290
										CHANNELS 3 Zrotation Xrotation Yrotation
										JOINT rIndex2
										{
											OFFSET -3.071884 -1.259598 2.506104
											CHANNELS 3 Zrotation Xrotation Yrotation
											JOINT rIndex3
											{
												OFFSET -1.394112 -1.446640 1.203302
												CHANNELS 3 Zrotation Xrotation Yrotation
												End Site
												{
													OFFSET -3.392448 -1.258026 0.533405
												}
											}
										}
									}
									JOINT rMid1
									{
										OFFSET -5.422974 0.107910 2.002650
										CHANNELS 3 Zrotation Xrotation Yrotation
										JOINT rMid2
										{
											OFFSET -3.599533 -1.323776 2.090647
											CHANNELS 3 Zrotation Xrotation Yrotation
											JOINT rMid3
											{
												OFFSET -1.360191 -1.598495 1.068055
												CHANNELS 3 Zrotation Xrotation Yrotation
												End Site
												{
													OFFSET -4.087769 -0.460876 0.069540
												}
											}
										}
									}
								}
								JOINT rCarpal2
								{
									OFFSET -1.942749 0.556229 -0.337217
									CHANNELS 3 Zrotation Xrotation Yrotation
									JOINT rRing1
									{
										OFFSET -4.762787 -0.121170 2.349089
										CHANNELS 3 Zrotation Xrotation Yrotation
										JOINT rRing2
										{
											OFFSET -3.380348 -1.337097 1.356700
											CHANNELS 3 Zrotation Xrotation Yrotation
											JOINT rRing3
											{
												OFFSET -1.430290 -1.499649 0.914224
												CHANNELS 3 Zrotation Xrotation Yrotation
												End Site
												{
													OFFSET -1.783272 -2.215851 -0.391895
												}
											}
										}
									}
									JOINT rPinky1
									{
										OFFSET -5.232559 -1.313721 0.336493
										CHANNELS 3 Zrotation Xrotation Yrotation
										JOINT rPinky2
										{
											OFFSET -2.217606 -1.389603 0.800693
											CHANNELS 3 Zrotation Xrotation Yrotation
											JOINT rPinky3
											{
												OFFSET -0.886887 -1.462280 0.774199
												CHANNELS 3 Zrotation Xrotation Yrotation
												End Site
												{
													OFFSET 14.139406 -2.625778 0.472826
												}
											}
										}
									}
								}
							}
						}
					}
				}
				JOINT lCollar
				{
					OFFSET 2.109295 21.452370 3.768136
					CHANNELS 3 Zrotation Xrotation Yrotation
					JOINT lShldr
					{
						OFFSET 11.491621 -2.568573 -4.940255
						CHANNELS 3 Zrotation Xrotation Yrotation
						JOINT lForeArm
						{
							OFFSET 28.789030 -0.213806 2.098380
							CHANNELS 3 Zrotation Xrotation Yrotation
							JOINT lHand
							{
								OFFSET 22.260895 -0.869583 10.391586
								CHANNELS 3 Zrotation Xrotation Yrotation
								JOINT lThumb1
								{
									OFFSET 0.628075 0.137405 2.362409
									CHANNELS 3 Zrotation Xrotation Yrotation
									JOINT lThumb2
									{
										OFFSET -0.085205 -0.600235 3.826079
										CHANNELS 3 Zrotation Xrotation Yrotation
										JOINT lThumb3
										{
											OFFSET 1.255478 -0.879211 2.439162
											CHANNELS 3 Zrotation Xrotation Yrotation
											End Site
											{
												OFFSET 2.963715 0.538574 4.059553
											}
										}
									}
								}
								JOINT lCarpal1
								{
									OFFSET 0.855530 1.026047 1.621985
									CHANNELS 3 Zrotation Xrotation Yrotation
									JOINT lIndex1
									{
										OFFSET 3.951324 0.390884 3.873290
										CHANNELS 3 Zrotation Xrotation Yrotation
										JOINT lIndex2
										{
											OFFSET 3.071884 -1.259598 2.506104
											CHANNELS 3 Zrotation Xrotation Yrotation
											JOINT lIndex3
											{
												OFFSET 1.394112 -1.446640 1.203302
												CHANNELS 3 Zrotation Xrotation Yrotation
												End Site
												{
													OFFSET 3.392448 -1.258026 0.533405
												}
											}
										}
									}
									JOINT lMid1
									{
										OFFSET 5.422974 0.107910 2.002650
										CHANNELS 3 Zrotation Xrotation Yrotation
										JOINT lMid2
										{
											OFFSET 3.599533 -1.323776 2.090647
											CHANNELS 3 Zrotation Xrotation Yrotation
											JOINT lMid3
											{
												OFFSET 1.360191 -1.598495 1.068055
												CHANNELS 3 Zrotation Xrotation Yrotation
												End Site
												{
													OFFSET 4.087769 -0.460876 0.069540
												}
											}
										}
									}
								}
								JOINT lCarpal2
								{
									OFFSET 1.942749 0.556229 -0.337217
									CHANNELS 3 Zrotation Xrotation Yrotation
									JOINT lRing1
									{
										OFFSET 4.762787 -0.121170 2.349089
										CHANNELS 3 Zrotation Xrotation Yrotation
										JOINT lRing2
										{
											OFFSET 3.380348 -1.337097 1.356700
											CHANNELS 3 Zrotation Xrotation Yrotation
											JOINT lRing3
											{
												OFFSET 1.430290 -1.499649 0.914224
												CHANNELS 3 Zrotation Xrotation Yrotation
												End Site
												{
													OFFSET 1.783272 -2.215851 -0.391895
												}
											}
										}
									}
									JOINT lPinky1
									{
										OFFSET 5.232559 -1.313721 0.336493
										CHANNELS 3 Zrotation Xrotation Yrotation
										JOINT lPinky2
										{
											OFFSET 2.217606 -1.389603 0.800693
											CHANNELS 3 Zrotation Xrotation Yrotation
											JOINT lPinky3
											{
												OFFSET 0.886887 -1.462280 0.774199
												CHANNELS 3 Zrotation Xrotation Yrotation
												End Site
												{
													OFFSET -10.295957 -17.050110 17.461308
												}
											}
										}
									}
								}
							}
						}
					}
				}
				JOINT rPectoral
				{
					OFFSET -6.358840 6.360771 6.369920
					CHANNELS 3 Zrotation Xrotation Yrotation
					End Site
					{
						OFFSET 10.295957 -17.050110 17.461308
					}
				}
				JOINT lPectoral
				{
					OFFSET 6.358840 6.360771 6.369920
					CHANNELS 3 Zrotation Xrotation Yrotation
					End Site
					{
						OFFSET 10.295957 -17.050110 17.461308
					}
				}
			}
		}
	}
}
MOTION
Frames:	4
Frame Time:	0.0333333
0.000000 0.000000 0.000000 0.000000 0.000000 0.000000 0.000000 0.000000 0.000000 0.000000 0.000000 0.000000 0.000000 0.000000 0.000000 0.000000 0.000000 0.000000 0.000000 0.000000 0.000000 0.000000 0.000000 0.000000 0.000000 0.000000 0.000000 0.000000 0.000000 0.000000 0.000000 0.000000 0.000000 0.000000 0.000000 0.000000 0.000000 0.000000 0.000000 0.000000 0.000000 0.000000 0.000000 0.000000 0.000000 0.000000 0.000000 0.000000 0.000000 0.000000 0.000000 0.000000 0.000000 0.000000 0.000000 0.000000 0.000000 0.000000 0.000000 0.000000 0.000000 0.000000 0.000000 0.000000 0.000000 0.000000 0.000000 0.000000 0.000000 0.000000 0.000000 0.000000 0.000000 0.000000 0.000000 0.000000 0.000000 0.000000 0.000000 0.000000 0.000000 0.000000 0.000000 0.000000 0.000000 0.000000 0.000000 0.000000 0.000000 0.000000 0.000000 0.000000 0.000000 0.000000 0.000000 0.000000 0.000000 0.000000 0.000000 0.000000 0.000000 0.000000 0.000000 0.000000 0.000000 0.000000 0.000000 0.000000 0.000000 0.000000 0.000000 0.000000 0.000000 0.000000 0.000000 0.000000 0.000000 0.000000 0.000000 0.000000 0.000000 0.000000 0.000000 0.000000 0.000000 0.000000 0.000000 0.000000 0.000000 0.000000 0.000000 0.000000 0.000000 0.000000 0.000000 0.000000 0.000000 0.000000 0.000000 0.000000 0.000000 0.000000 0.000000 0.000000 0.000000 0.000000 0.000000 0.000000 0.000000 0.000000 0.000000 0.000000 0.000000 0.000000 0.000000 0.000000 0.000000 0.000000 0.000000 0.000000 0.000000 0.000000 0.000000 0.000000 0.000000 0.000000 0.000000 0.000000 0.000000 0.000000 0.000000 0.000000 0.000000 0.000000 0.000000 0.000000 0.000000 0.000000 0.000000 0.000000 0.000000 0.000000 0.000000 0.000000 0.000000 0.000000 0.000000 0.000000 0.000000 0.000000 0.000000 0.000000 0.000000 0.000000 0.000000 0.000000 0.000000 0.000000 0.000000 0.000000 0.000000 0.000000 0.000000 0.000000 0.000000 0.000000 0.000000 0.000000 0.000000 0.000000 0.000000 0.000000 0.000000 0.000000 0.000000 0.000000 0.000000 0.000000 0.000000 
0.014331 -1.228381 0.001258 -7.564350 6.236830 10.703253 0.000000 0.000000 0.000000 30.990423 -14.105757 22.651421 -5.717660 10.202788 19.201265 -3.974589 -4.191249 -5.101625 3.789026 -10.317941 1.685215 0.000000 0.000000 0.000000 2.961742 -8.771627 2.847316 4.697220 6.979312 9.847322 -6.335393 -24.293360 8.376561 -3.582336 -3.889131 -2.053183 0.000000 0.000000 0.000000 -7.910762 -15.159307 -3.496474 0.000000 0.000000 0.000000 18.799025 11.820448 -7.177173 0.241865 -12.396812 -0.985833 -7.899455 7.379545 1.126137 0.000000 0.000000 0.000000 0.000000 0.000000 0.000000 0.000000 0.000000 0.000000 0.000000 0.000000 0.000000 0.000000 0.000000 0.000000 0.001790 18.987013 -0.000299 0.000000 16.984755 0.000000 0.000000 5.997176 0.000000 -0.003221 -13.991714 -0.001883 0.000000 0.000000 0.000000 0.000000 0.000000 0.000000 6.452530 -0.417163 -6.448751 32.956997 54.273563 -3.030595 -3.688351 7.819073 54.811398 -18.396788 -15.567142 32.309319 -10.393009 -7.971904 16.648985 -1.494776 -15.038801 23.088999 7.407344 -0.278172 31.623465 0.000000 0.000000 0.000000 -28.453562 -15.651978 -20.501089 -6.723835 -5.550074 -0.174582 -0.960622 0.458009 -0.875183 -22.448643 -9.311081 -10.774873 -5.595037 0.086813 -4.287760 1.796219 4.946139 -1.576838 0.000000 0.000000 0.000000 -27.904564 -12.110583 -10.380296 -0.800416 3.564149 -6.686873 6.784202 8.449405 -0.409149 -45.158081 -22.008369 -25.226564 1.499976 6.816498 -7.062992 18.051430 9.641696 1.889754 -11.682191 0.158672 2.662600 -6.654674 64.561623 -39.807182 -13.852028 9.650684 -37.712513 20.333790 -22.627666 -45.213432 10.082646 -6.749837 -17.326450 1.538099 -15.158346 -23.056992 -7.375658 -0.277562 -31.613049 0.000000 0.000000 0.000000 27.418396 -15.331839 19.952911 6.368516 -3.525250 1.659743 5.983440 -3.527120 1.172528 21.407303 -8.984153 10.269351 4.551635 0.435429 4.088253 1.257262 3.298416 2.367773 0.000000 0.000000 0.000000 26.443081 -12.596099 8.509088 -0.609645 3.275258 6.731373 3.542939 6.096317 4.207355 43.171181 -22.559814 23.809225 -3.187755 6.764663 6.897435 -11.943246 14.095104 3.297163 0.210986 -0.010875 -0.619583 -0.096223 -0.004676 0.282529 
0.198959 -1.218334 -0.070842 -7.617260 6.480433 10.767379 0.000000 0.000000 0.000000 30.807852 -14.499780 21.809666 -5.557550 10.277576 18.426342 -4.126169 -4.760653 -4.762487 3.914074 -10.164371 1.667048 0.000000 0.000000 0.000000 2.896241 -8.969949 2.900961 4.729250 6.797124 9.765357 -6.245098 -24.218868 8.386781 -3.582336 -3.889131 -2.053183 0.000000 0.000000 0.000000 -8.031198 -15.441224 -3.638029 0.000000 0.000000 0.000000 18.872759 12.032842 -7.307175 0.360790 -12.790369 -0.987718 -7.766162 7.535948 1.150571 0.000000 0.000000 0.000000 0.000000 0.000000 0.000000 0.000000 0.000000 0.000000 0.000000 0.000000 0.000000 0.000000 0.000000 0.000000 0.001790 18.987013 -0.000299 0.000000 16.984755 0.000000 0.000000 5.997176 0.000000 -0.003221 -13.991714 -0.001883 0.000000 0.000000 0.000000 0.000000 0.000000 0.000000 6.482842 -0.414679 -6.425995 32.599854 54.497696 -2.693267 -3.474467 7.921421 54.788277 -18.283520 -15.574235 32.568108 -10.393009 -7.971904 16.648985 -1.494776 -15.038801 23.088999 7.407344 -0.278172 31.623465 0.000000 0.000000 0.000000 -28.453562 -15.651978 -20.501089 -6.723835 -5.550074 -0.174582 -0.960622 0.458009 -0.875183 -22.448643 -9.311081 -10.774873 -5.595037 0.086813 -4.287760 1.796219 4.946139 -1.576838 0.000000 0.000000 0.000000 -27.904564 -12.110583 -10.380296 -0.800416 3.564149 -6.686873 6.784202 8.449405 -0.409149 -45.158081 -22.008369 -25.226564 1.499976 6.816498 -7.062992 18.051430 9.641696 1.889754 -11.682191 0.158672 2.662600 -6.021380 64.525307 -40.550091 -13.401402 9.956928 -37.587231 20.099846 -22.714909 -45.310360 9.769328 -5.765756 -18.018305 1.538099 -15.158346 -23.056992 -7.212006 -0.198826 -31.481148 0.000000 0.000000 0.000000 27.439362 -15.350832 19.986784 6.368516 -3.525250 1.659743 5.983440 -3.527120 1.172528 21.407303 -8.984153 10.269351 4.551635 0.435429 4.088253 1.257262 3.298416 2.367773 0.000000 0.000000 0.000000 26.443081 -12.596099 8.509088 -0.712862 3.317093 6.722734 3.542939 6.096317 4.207355 43.171181 -22.559814 23.809225 -3.579128 6.916308 6.862982 -12.014048 14.134928 3.276161 0.210282 -0.010835 -0.617514 -0.096223 -0.004676 0.282529 
0.389177 -1.207968 -0.145139 -7.616652 6.618057 10.561714 0.000000 0.000000 0.000000 30.554363 -14.687844 21.075827 -5.314652 10.435216 17.242481 -4.491423 -5.617932 -4.669376 4.092115 -9.921865 1.641764 0.000000 0.000000 0.000000 2.770565 -9.155382 3.146066 4.753815 6.788305 9.724123 -6.127609 -24.189764 8.388443 -3.582336 -3.889131 -2.053183 0.000000 0.000000 0.000000 -8.126666 -15.625571 -3.684560 0.000000 0.000000 0.000000 18.936632 12.263706 -7.374796 0.291427 -13.089266 -0.982603 -7.491001 7.716203 1.091064 0.000000 0.000000 0.000000 0.000000 0.000000 0.000000 0.000000 0.000000 0.000000 0.000000 0.000000 0.000000 0.000000 0.000000 0.000000 0.001790 18.987013 -0.000299 0.000000 16.984755 0.000000 0.000000 5.997176 0.000000 -0.003221 -13.991714 -0.001883 0.000000 0.000000 0.000000 0.000000 0.000000 0.000000 6.484505 -0.415858 -6.434342 32.288784 54.567989 -2.585033 -3.191668 7.893714 55.064297 -18.229872 -15.578053 32.579578 -10.393009 -7.971904 16.648985 -1.494776 -15.038801 23.088999 7.407344 -0.278172 31.623465 0.000000 0.000000 0.000000 -28.453562 -15.651978 -20.501089 -6.723835 -5.550074 -0.174582 -0.960622 0.458009 -0.875183 -22.448643 -9.311081 -10.774873 -5.595037 0.086813 -4.287760 1.796219 4.946139 -1.576838 0.000000 0.000000 0.000000 -27.904564 -12.110583 -10.380296 -0.800416 3.564149 -6.686873 6.784202 8.449405 -0.409149 -45.158081 -22.008369 -25.226564 1.499976 6.816498 -7.062992 18.051430 9.641696 1.889754 -11.701247 0.159958 2.655440 -5.948452 64.194321 -40.691517 -13.325692 10.347479 -37.536942 20.260042 -23.272959 -46.083122 9.458776 -5.007291 -18.692261 1.538099 -15.158346 -23.056992 -7.018699 -0.182597 -31.325533 0.000000 0.000000 0.000000 27.452732 -15.349163 20.014605 6.368516 -3.525250 1.659743 5.983440 -3.527120 1.172528 21.407303 -8.984153 10.269351 4.551635 0.435429 4.088253 1.257262 3.298416 2.367773 0.000000 0.000000 0.000000 26.443081 -12.596099 8.509088 -0.777129 3.343075 6.714256 3.549657 6.098294 4.213956 43.145786 -22.563690 23.791166 -3.835951 7.017931 6.831952 -12.048590 14.154327 3.259049 0.210554 -0.010850 -0.618313 -0.096028 -0.004666 0.281960 
